<svg width="80" height="80" viewBox="0 0 80 80" fill="none" xmlns="http://www.w3.org/2000/svg">
<g clip-path="url(#clip0_1108_2923)">
<g clip-path="url(#clip1_1108_2923)">
<path d="M21.7918 4.38495C28.6816 0.862384 36.4452 -0.586137 44.1418 0.214954C45.131 0.317726 46.0389 0.809269 46.6658 1.58145C47.2926 2.35363 47.587 3.3432 47.4843 4.33245C47.3815 5.32171 46.8899 6.22963 46.1178 6.85647C45.3456 7.48331 44.356 7.77772 43.3668 7.67495C37.1129 7.02452 30.8047 8.2021 25.2068 11.065L24.0968 11.655C18.6144 14.7318 14.142 19.3326 11.2218 24.9L10.6618 26.025C7.77331 32.0877 6.83394 38.8964 7.97283 45.5149C9.11171 52.1333 12.2729 58.2364 17.0218 62.9849L17.9218 63.8549C22.5372 68.1275 28.2933 70.969 34.4918 72.0349L35.7318 72.2199C41.9656 73.0457 48.3051 72.0453 53.9818 69.3399L55.1018 68.7799C60.8595 65.759 65.5788 61.0805 68.6495 55.3491C71.7202 49.6177 73.0011 43.097 72.3268 36.63L76.0568 36.245L79.7868 35.855C80.6159 43.8137 79.0389 51.8383 75.2596 58.8914C71.4803 65.9446 65.6725 71.7021 58.5868 75.4199L57.2068 76.1099C50.2207 79.4394 42.4187 80.6709 34.7468 79.6549L33.2168 79.4199C25.5918 78.1086 18.5108 74.6142 12.8318 69.3599L11.7218 68.2899C5.87565 62.4463 1.98348 54.9351 0.580454 46.7891C-0.822567 38.6432 0.332479 30.2627 3.88675 22.8L4.58175 21.42C8.17723 14.5679 13.683 8.9058 20.4318 5.11995L21.7918 4.38495ZM61.1018 1.09995C61.6262 0.576172 62.2941 0.21955 63.0211 0.0751277C63.7481 -0.0692942 64.5016 0.00496253 65.1864 0.288519C65.8712 0.572076 66.4566 1.05221 66.8687 1.66829C67.2808 2.28437 67.5011 3.00875 67.5018 3.74995V12.5H76.2518L76.8118 12.55C77.4498 12.6472 78.0519 12.9075 78.5599 13.3057C79.0679 13.7038 79.4645 14.2264 79.7114 14.8227C79.9583 15.419 80.0471 16.069 79.9692 16.7097C79.8913 17.3504 79.6493 17.9601 79.2668 18.48L78.9018 18.905L63.9018 33.905C63.1992 34.6084 62.246 35.0041 61.2518 35.005H59.3518C59.9488 37.294 60.135 39.6708 59.9018 42.0249L59.6818 43.5499C58.9962 47.3538 57.2232 50.8776 54.5771 53.6949C51.931 56.5123 48.5252 58.5025 44.7718 59.4249L43.2568 59.7349C39.7022 60.3207 36.0555 59.9354 32.7018 58.6199L31.2868 58.0049C28.043 56.4337 25.284 54.0152 23.3018 51.0049L22.5018 49.6849C20.5025 46.074 19.6694 41.933 20.1168 37.83L20.3468 36.3C21.0145 32.7594 22.6263 29.4651 25.0118 26.765L26.0768 25.645C28.6627 23.1382 31.8775 21.3761 35.3818 20.545L35.7618 20.47C36.7185 20.3382 37.6892 20.5807 38.4716 21.1469C39.254 21.7131 39.7878 22.5593 39.9618 23.5092C40.1358 24.4592 39.9366 25.4397 39.4057 26.2464C38.8748 27.0532 38.0531 27.624 37.1118 27.84L36.1868 28.095C34.3524 28.6834 32.6788 29.6879 31.2968 31.03L30.6318 31.725C29.1318 33.415 28.1318 35.48 27.7168 37.685L27.5718 38.645C27.2919 41.2095 27.8123 43.7979 29.0618 46.055L29.5618 46.8799C30.8012 48.7594 32.5252 50.2692 34.5518 51.2499L35.4368 51.6399C37.5335 52.4637 39.8139 52.7056 42.0368 52.3399L42.9818 52.1399C45.3276 51.5638 47.4564 50.3202 49.1104 48.5597C50.7644 46.7992 51.8729 44.5972 52.3018 42.2199L52.4368 41.2699C52.6533 39.13 52.3141 36.9704 51.4518 35H50.3018L42.6518 42.6499C42.3084 43.0184 41.8944 43.3139 41.4344 43.5189C40.9744 43.7238 40.4779 43.834 39.9744 43.8429C39.4709 43.8518 38.9707 43.7592 38.5038 43.5706C38.0368 43.382 37.6127 43.1012 37.2566 42.7451C36.9005 42.389 36.6197 41.9649 36.4311 41.4979C36.2425 41.031 36.1499 40.5309 36.1588 40.0273C36.1677 39.5238 36.2779 39.0273 36.4828 38.5673C36.6878 38.1073 36.9833 37.6933 37.3518 37.35L45.0018 29.7V18.75C45.0018 17.755 45.3968 16.8 46.1018 16.1L61.1018 1.09995ZM75.6668 32.515C76.1566 32.4637 76.6517 32.5094 77.1239 32.6495C77.5961 32.7897 78.036 33.0214 78.4186 33.3316C78.8012 33.6417 79.1189 34.0242 79.3537 34.4572C79.5884 34.8901 79.7356 35.3651 79.7868 35.855L72.3268 36.63C72.2246 35.6415 72.519 34.6529 73.1453 33.8813C73.7715 33.1098 74.6784 32.6183 75.6668 32.515ZM52.5018 20.305V27.5H59.7018L67.2018 20H60.0018V12.8L52.5018 20.305Z" fill="black"/>
</g>
</g>
<defs>
<clipPath id="clip0_1108_2923">
<rect width="80" height="80" fill="white"/>
</clipPath>
<clipPath id="clip1_1108_2923">
<rect width="80" height="80" fill="white"/>
</clipPath>
</defs>
</svg>
