<svg width="80" height="80" viewBox="0 0 80 80" fill="none" xmlns="http://www.w3.org/2000/svg">
<g clip-path="url(#clip0_1108_2939)">
<g clip-path="url(#clip1_1108_2939)">
<path d="M56.0006 11C56.0006 10.2044 56.3167 9.44129 56.8793 8.87868C57.4419 8.31607 58.205 8 59.0006 8H69.0006C69.7963 8 70.5593 8.31607 71.1219 8.87868C71.6845 9.44129 72.0006 10.2044 72.0006 11V21C72.0006 21.7956 71.6845 22.5587 71.1219 23.1213C70.5593 23.6839 69.7963 24 69.0006 24C68.205 24 67.4419 23.6839 66.8793 23.1213C66.3167 22.5587 66.0006 21.7956 66.0006 21V18.24L48.1206 36.12C47.5581 36.6818 46.7956 36.9974 46.0006 36.9974C45.2056 36.9974 44.4431 36.6818 43.8806 36.12L34.0006 26.24L17.1206 43.12C16.846 43.4147 16.5148 43.6512 16.1468 43.8151C15.7788 43.9791 15.3815 44.0673 14.9787 44.0744C14.5759 44.0815 14.1758 44.0074 13.8022 43.8565C13.4287 43.7056 13.0893 43.481 12.8045 43.1962C12.5196 42.9113 12.295 42.5719 12.1441 42.1984C11.9932 41.8248 11.9191 41.4247 11.9262 41.0219C11.9334 40.6191 12.0215 40.2218 12.1855 39.8538C12.3495 39.4859 12.5859 39.1546 12.8806 38.88L31.8806 19.88C32.4431 19.3182 33.2056 19.0026 34.0006 19.0026C34.7956 19.0026 35.5581 19.3182 36.1206 19.88L46.0006 29.76L61.7606 14H59.0006C58.205 14 57.4419 13.6839 56.8793 13.1213C56.3167 12.5587 56.0006 11.7956 56.0006 11ZM15.0006 56C15.7963 56 16.5593 56.3161 17.1219 56.8787C17.6845 57.4413 18.0006 58.2044 18.0006 59V69C18.0006 69.7956 17.6845 70.5587 17.1219 71.1213C16.5593 71.6839 15.7963 72 15.0006 72C14.205 72 13.4419 71.6839 12.8793 71.1213C12.3167 70.5587 12.0006 69.7956 12.0006 69V59C12.0006 58.2044 12.3167 57.4413 12.8793 56.8787C13.4419 56.3161 14.205 56 15.0006 56ZM34.0006 47C34.0006 46.2044 33.6845 45.4413 33.1219 44.8787C32.5593 44.3161 31.7963 44 31.0006 44C30.205 44 29.4419 44.3161 28.8793 44.8787C28.3167 45.4413 28.0006 46.2044 28.0006 47V69C28.0006 69.7956 28.3167 70.5587 28.8793 71.1213C29.4419 71.6839 30.205 72 31.0006 72C31.7963 72 32.5593 71.6839 33.1219 71.1213C33.6845 70.5587 34.0006 69.7956 34.0006 69V47ZM47.0006 52C47.7963 52 48.5593 52.3161 49.1219 52.8787C49.6845 53.4413 50.0006 54.2044 50.0006 55V69C50.0006 69.7956 49.6845 70.5587 49.1219 71.1213C48.5593 71.6839 47.7963 72 47.0006 72C46.205 72 45.4419 71.6839 44.8793 71.1213C44.3167 70.5587 44.0006 69.7956 44.0006 69V55C44.0006 54.2044 44.3167 53.4413 44.8793 52.8787C45.4419 52.3161 46.205 52 47.0006 52ZM66.0006 39C66.0006 38.2044 65.6845 37.4413 65.1219 36.8787C64.5593 36.3161 63.7963 36 63.0006 36C62.205 36 61.4419 36.3161 60.8793 36.8787C60.3167 37.4413 60.0006 38.2044 60.0006 39V69C60.0006 69.7956 60.3167 70.5587 60.8793 71.1213C61.4419 71.6839 62.205 72 63.0006 72C63.7963 72 64.5593 71.6839 65.1219 71.1213C65.6845 70.5587 66.0006 69.7956 66.0006 69V39Z" fill="black"/>
</g>
</g>
<defs>
<clipPath id="clip0_1108_2939">
<rect width="80" height="80" fill="white"/>
</clipPath>
<clipPath id="clip1_1108_2939">
<rect width="80" height="80" fill="white"/>
</clipPath>
</defs>
</svg>
