<svg width="80" height="80" viewBox="0 0 80 80" fill="none" xmlns="http://www.w3.org/2000/svg">
<path d="M40 5L10 15V45C10 61.5703 23.4297 75 40 75C56.5703 75 70 61.5703 70 45V15L40 5ZM64.375 45C64.375 58.4609 53.4609 69.375 40 69.375C26.5391 69.375 15.625 58.4609 15.625 45V19.2188L40 10.625L64.375 19.2188V45Z" fill="black"/>
<path d="M29.5606 37.1172C29.2999 36.8553 28.9901 36.6475 28.6489 36.5057C28.3077 36.364 27.9418 36.291 27.5723 36.291C27.2028 36.291 26.837 36.364 26.4958 36.5057C26.1546 36.6475 25.8447 36.8553 25.584 37.1172C25.3222 37.3779 25.1144 37.6877 24.9726 38.0289C24.8308 38.3701 24.7578 38.736 24.7578 39.1055C24.7578 39.475 24.8308 39.8408 24.9726 40.182C25.1144 40.5232 25.3222 40.8331 25.584 41.0938L35.6934 51.2031L35.8575 51.3672C36.1041 51.6142 36.3969 51.8102 36.7193 51.9439C37.0417 52.0777 37.3873 52.1465 37.7364 52.1465C38.0854 52.1465 38.431 52.0777 38.7534 51.9439C39.0758 51.8102 39.3687 51.6142 39.6153 51.3672L57.0762 33.9063C57.3233 33.6597 57.5193 33.3668 57.653 33.0444C57.7867 32.722 57.8555 32.3764 57.8555 32.0273C57.8555 31.6783 57.7867 31.3327 57.653 31.0103C57.5193 30.6879 57.3233 30.395 57.0762 30.1484L56.8575 29.9297C56.6109 29.6827 56.318 29.4867 55.9956 29.3529C55.6732 29.2192 55.3276 29.1504 54.9786 29.1504C54.6295 29.1504 54.2839 29.2192 53.9615 29.3529C53.6391 29.4867 53.3462 29.6827 53.0997 29.9297L37.7325 45.2891L29.5606 37.1172Z" fill="black"/>
</svg>
