<svg width="63" height="45" viewBox="0 0 63 45" fill="none" xmlns="http://www.w3.org/2000/svg">
<path d="M60.4767 39.2687C61.6684 34.8237 61.8215 30.1641 60.9242 25.6504C60.0269 21.1368 58.1032 16.8901 55.3019 13.2389C52.5006 9.58765 48.8969 6.62985 44.7696 4.59429C40.6423 2.55874 36.102 1.5 31.5 1.5C26.898 1.5 22.3577 2.55874 18.2304 4.59429C14.1031 6.62985 10.4994 9.58765 7.6981 13.2389C4.89684 16.8901 2.97314 21.1368 2.07582 25.6504C1.1785 30.1641 1.33162 34.8237 2.52333 39.2687" stroke="#5A595C" stroke-width="3" stroke-linecap="round"/>
<path d="M34.0536 33.4421C35.6769 35.8088 34.5336 39.4155 31.5002 41.4988C28.4669 43.5855 24.6902 43.3588 23.0669 40.9955C21.3336 38.4755 15.3536 24.3055 11.7236 15.5388C11.0402 13.8888 13.0569 12.5021 14.3569 13.7321C21.2369 20.2655 32.3236 30.9221 34.0536 33.4421Z" stroke="#5A595C" stroke-width="3"/>
<path d="M31.5001 1.50195V8.16862M10.2868 10.2886L15.0001 15.002M52.7134 10.2886L48.0001 15.002M60.4768 39.2686L54.0401 37.542M2.52344 39.2686L8.9601 37.542" stroke="#5A595C" stroke-width="3" stroke-linecap="round"/>
</svg>
